<svg width="24" height="24" viewBox="0 0 24 24" fill="none" xmlns="http://www.w3.org/2000/svg">
<path d="M23.4736 5.8483C23.0186 5.29236 22.3109 4.95447 21.5785 4.95447H6.19066L5.71097 3.1668C5.43262 2.12761 4.47323 1.40273 3.36082 1.40273H0.783719C0.354361 1.40273 0 1.74062 0 2.15216C0 2.56273 0.353351 2.90159 0.783719 2.90159H3.36082C3.73985 2.90159 4.06854 3.14322 4.1692 3.50566L7.25167 15.2493C7.53003 16.2885 8.48941 17.0134 9.60182 17.0134H19.6833C20.7947 17.0134 21.7808 16.2885 22.0335 15.2493L23.9286 7.80689C24.1053 7.12919 23.9543 6.40431 23.4736 5.84837L23.4736 5.8483ZM22.3879 7.46701L20.4928 14.9094C20.3921 15.2718 20.0634 15.5135 19.6844 15.5135H9.60185C9.22282 15.5135 8.89413 15.2718 8.79347 14.9094L6.59533 6.47706H21.5796C21.8323 6.47706 22.085 6.59788 22.237 6.79137C22.388 6.98392 22.463 7.22555 22.388 7.46718L22.3879 7.46701Z" fill="white"/>
<path d="M10.1332 17.9778C8.69316 17.9778 7.50586 19.1133 7.50586 20.4903C7.50586 21.8673 8.69326 23.0027 10.1332 23.0027C11.5733 23.0037 12.7606 21.8682 12.7606 20.491C12.7606 19.1138 11.5732 17.9776 10.1332 17.9776V17.9778ZM10.1332 21.4814C9.55188 21.4814 9.09685 21.0463 9.09685 20.4904C9.09685 19.9344 9.55188 19.4993 10.1332 19.4993C10.7146 19.4993 11.1696 19.9344 11.1696 20.4904C11.1687 21.0227 10.689 21.4814 10.1332 21.4814Z" fill="white"/>
<path d="M18.825 17.9778C17.3849 17.9778 16.1976 19.1132 16.1976 20.4902C16.1976 21.8672 17.385 23.0027 18.825 23.0027C20.265 23.0027 21.4524 21.8672 21.4524 20.4902C21.4277 19.1141 20.265 17.9778 18.825 17.9778ZM18.825 21.4814C18.2437 21.4814 17.7886 21.0462 17.7886 20.4903C17.7886 19.9344 18.2437 19.4992 18.825 19.4992C19.4064 19.4992 19.8614 19.9344 19.8614 20.4903C19.8614 21.0226 19.3807 21.4814 18.825 21.4814Z" fill="white"/>
</svg>
